<mxfile host="Electron" modified="2024-04-05T15:47:56.622Z" agent="Mozilla/5.0 (Windows NT 10.0; Win64; x64) AppleWebKit/537.36 (KHTML, like Gecko) draw.io/23.1.5 Chrome/120.0.6099.109 Electron/28.1.0 Safari/537.36" etag="jYnVroKezg33LTtUfp0n" version="23.1.5" type="device">
  <diagram name="Pagina-1" id="qGEqJV1HdOf9I3EUGiBS">
    <mxGraphModel dx="281" dy="621" grid="1" gridSize="10" guides="1" tooltips="1" connect="1" arrows="1" fold="1" page="1" pageScale="1" pageWidth="827" pageHeight="1169" math="0" shadow="0">
      <root>
        <mxCell id="0" />
        <mxCell id="1" parent="0" />
        <mxCell id="amig_3oEZwYlV8EGqkei-1" value="&lt;p&gt;Creare il sistema di gestione oggetti celesti per la ESA&lt;/p&gt;&lt;p&gt;Ogni oggetto celeste è caratterizzato da:&lt;br&gt;- Nome&lt;br&gt;- Codice univoco&lt;br&gt;- Data scoperta&lt;br&gt;- Scopritore&lt;br&gt;- Tipologia&lt;br&gt;- Distanza dalla terra&lt;br&gt;- Coordinate polari&lt;/p&gt;&lt;p&gt;Ogni oggetto celeste può far parte di un Sistema caratterizzato da nome, codice, e tipo che può essere:&lt;br&gt;- Sistema planetario&lt;br&gt;- Costellazione&lt;br&gt;- Galassia&lt;/p&gt;&lt;p&gt;Ricercare gli elementi per:&lt;br&gt;- Nome dell&#39;oggetto celeste&lt;br&gt;- Tipo di sistema&lt;br&gt;- Scopritore&lt;br&gt;- Tipologia&lt;/p&gt;&lt;p&gt;REGOLE:&lt;br&gt;- Non posso inserire un oggetto all&#39;interno di un sistema se fa già parte di un altro sistema dello stesso tipo ma diverso.&lt;/p&gt;" style="text;html=1;align=left;verticalAlign=middle;whiteSpace=wrap;rounded=0;" vertex="1" parent="1">
          <mxGeometry x="40" y="40" width="760" height="400" as="geometry" />
        </mxCell>
        <mxCell id="amig_3oEZwYlV8EGqkei-8" style="edgeStyle=orthogonalEdgeStyle;rounded=0;orthogonalLoop=1;jettySize=auto;html=1;exitX=0.5;exitY=1;exitDx=0;exitDy=0;entryX=0;entryY=0.5;entryDx=0;entryDy=0;" edge="1" parent="1" source="amig_3oEZwYlV8EGqkei-2" target="amig_3oEZwYlV8EGqkei-3">
          <mxGeometry relative="1" as="geometry" />
        </mxCell>
        <mxCell id="amig_3oEZwYlV8EGqkei-9" style="edgeStyle=orthogonalEdgeStyle;rounded=0;orthogonalLoop=1;jettySize=auto;html=1;entryX=0;entryY=0.5;entryDx=0;entryDy=0;" edge="1" parent="1" source="amig_3oEZwYlV8EGqkei-2" target="amig_3oEZwYlV8EGqkei-4">
          <mxGeometry relative="1" as="geometry" />
        </mxCell>
        <mxCell id="amig_3oEZwYlV8EGqkei-10" style="edgeStyle=orthogonalEdgeStyle;rounded=0;orthogonalLoop=1;jettySize=auto;html=1;exitX=0.5;exitY=1;exitDx=0;exitDy=0;entryX=0;entryY=0.5;entryDx=0;entryDy=0;" edge="1" parent="1" source="amig_3oEZwYlV8EGqkei-2" target="amig_3oEZwYlV8EGqkei-5">
          <mxGeometry relative="1" as="geometry" />
        </mxCell>
        <mxCell id="amig_3oEZwYlV8EGqkei-11" style="edgeStyle=orthogonalEdgeStyle;rounded=0;orthogonalLoop=1;jettySize=auto;html=1;entryX=0;entryY=0.5;entryDx=0;entryDy=0;" edge="1" parent="1" source="amig_3oEZwYlV8EGqkei-2" target="amig_3oEZwYlV8EGqkei-6">
          <mxGeometry relative="1" as="geometry" />
        </mxCell>
        <mxCell id="amig_3oEZwYlV8EGqkei-12" style="edgeStyle=orthogonalEdgeStyle;rounded=0;orthogonalLoop=1;jettySize=auto;html=1;exitX=0.5;exitY=1;exitDx=0;exitDy=0;entryX=0;entryY=0.5;entryDx=0;entryDy=0;" edge="1" parent="1" source="amig_3oEZwYlV8EGqkei-2" target="amig_3oEZwYlV8EGqkei-7">
          <mxGeometry relative="1" as="geometry" />
        </mxCell>
        <mxCell id="amig_3oEZwYlV8EGqkei-20" style="edgeStyle=orthogonalEdgeStyle;rounded=0;orthogonalLoop=1;jettySize=auto;html=1;exitX=0.5;exitY=1;exitDx=0;exitDy=0;entryX=0;entryY=0.5;entryDx=0;entryDy=0;" edge="1" parent="1" source="amig_3oEZwYlV8EGqkei-2" target="amig_3oEZwYlV8EGqkei-18">
          <mxGeometry relative="1" as="geometry" />
        </mxCell>
        <mxCell id="amig_3oEZwYlV8EGqkei-21" style="edgeStyle=orthogonalEdgeStyle;rounded=0;orthogonalLoop=1;jettySize=auto;html=1;exitX=0.5;exitY=1;exitDx=0;exitDy=0;entryX=0;entryY=0.5;entryDx=0;entryDy=0;" edge="1" parent="1" source="amig_3oEZwYlV8EGqkei-2" target="amig_3oEZwYlV8EGqkei-19">
          <mxGeometry relative="1" as="geometry" />
        </mxCell>
        <mxCell id="amig_3oEZwYlV8EGqkei-2" value="Oggetto celeste" style="rounded=0;whiteSpace=wrap;html=1;" vertex="1" parent="1">
          <mxGeometry x="40" y="480" width="120" height="60" as="geometry" />
        </mxCell>
        <mxCell id="amig_3oEZwYlV8EGqkei-3" value="" style="ellipse;whiteSpace=wrap;html=1;aspect=fixed;" vertex="1" parent="1">
          <mxGeometry x="130" y="560" width="30" height="30" as="geometry" />
        </mxCell>
        <mxCell id="amig_3oEZwYlV8EGqkei-4" value="" style="ellipse;whiteSpace=wrap;html=1;aspect=fixed;fillColor=#33001A;" vertex="1" parent="1">
          <mxGeometry x="130" y="600" width="30" height="30" as="geometry" />
        </mxCell>
        <mxCell id="amig_3oEZwYlV8EGqkei-5" value="" style="ellipse;whiteSpace=wrap;html=1;aspect=fixed;" vertex="1" parent="1">
          <mxGeometry x="130" y="640" width="30" height="30" as="geometry" />
        </mxCell>
        <mxCell id="amig_3oEZwYlV8EGqkei-6" value="" style="ellipse;whiteSpace=wrap;html=1;aspect=fixed;" vertex="1" parent="1">
          <mxGeometry x="130" y="680" width="30" height="30" as="geometry" />
        </mxCell>
        <mxCell id="amig_3oEZwYlV8EGqkei-7" value="" style="ellipse;whiteSpace=wrap;html=1;aspect=fixed;" vertex="1" parent="1">
          <mxGeometry x="130" y="720" width="30" height="30" as="geometry" />
        </mxCell>
        <mxCell id="amig_3oEZwYlV8EGqkei-13" value="Nome" style="text;html=1;align=center;verticalAlign=middle;whiteSpace=wrap;rounded=0;" vertex="1" parent="1">
          <mxGeometry x="160" y="560" width="60" height="30" as="geometry" />
        </mxCell>
        <mxCell id="amig_3oEZwYlV8EGqkei-14" value="Codice" style="text;html=1;align=center;verticalAlign=middle;whiteSpace=wrap;rounded=0;" vertex="1" parent="1">
          <mxGeometry x="160" y="600" width="60" height="30" as="geometry" />
        </mxCell>
        <mxCell id="amig_3oEZwYlV8EGqkei-15" value="Data_scoperta" style="text;html=1;align=center;verticalAlign=middle;whiteSpace=wrap;rounded=0;" vertex="1" parent="1">
          <mxGeometry x="170" y="640" width="80" height="30" as="geometry" />
        </mxCell>
        <mxCell id="amig_3oEZwYlV8EGqkei-16" value="Scopritore" style="text;html=1;align=center;verticalAlign=middle;whiteSpace=wrap;rounded=0;" vertex="1" parent="1">
          <mxGeometry x="160" y="680" width="60" height="30" as="geometry" />
        </mxCell>
        <mxCell id="amig_3oEZwYlV8EGqkei-17" value="Tipo" style="text;html=1;align=center;verticalAlign=middle;whiteSpace=wrap;rounded=0;" vertex="1" parent="1">
          <mxGeometry x="160" y="720" width="60" height="30" as="geometry" />
        </mxCell>
        <mxCell id="amig_3oEZwYlV8EGqkei-18" value="" style="ellipse;whiteSpace=wrap;html=1;aspect=fixed;" vertex="1" parent="1">
          <mxGeometry x="130" y="760" width="30" height="30" as="geometry" />
        </mxCell>
        <mxCell id="amig_3oEZwYlV8EGqkei-19" value="" style="ellipse;whiteSpace=wrap;html=1;aspect=fixed;" vertex="1" parent="1">
          <mxGeometry x="130" y="800" width="30" height="30" as="geometry" />
        </mxCell>
        <mxCell id="amig_3oEZwYlV8EGqkei-22" value="Distanza dalla terra" style="text;html=1;align=center;verticalAlign=middle;whiteSpace=wrap;rounded=0;" vertex="1" parent="1">
          <mxGeometry x="160" y="760" width="60" height="30" as="geometry" />
        </mxCell>
        <mxCell id="amig_3oEZwYlV8EGqkei-23" value="Coordinate polari" style="text;html=1;align=center;verticalAlign=middle;whiteSpace=wrap;rounded=0;" vertex="1" parent="1">
          <mxGeometry x="160" y="800" width="60" height="30" as="geometry" />
        </mxCell>
        <mxCell id="amig_3oEZwYlV8EGqkei-24" style="edgeStyle=orthogonalEdgeStyle;rounded=0;orthogonalLoop=1;jettySize=auto;html=1;exitX=0.5;exitY=1;exitDx=0;exitDy=0;entryX=0;entryY=0.5;entryDx=0;entryDy=0;" edge="1" parent="1" source="amig_3oEZwYlV8EGqkei-27" target="amig_3oEZwYlV8EGqkei-28">
          <mxGeometry relative="1" as="geometry" />
        </mxCell>
        <mxCell id="amig_3oEZwYlV8EGqkei-25" style="edgeStyle=orthogonalEdgeStyle;rounded=0;orthogonalLoop=1;jettySize=auto;html=1;entryX=0;entryY=0.5;entryDx=0;entryDy=0;" edge="1" parent="1" source="amig_3oEZwYlV8EGqkei-27" target="amig_3oEZwYlV8EGqkei-29">
          <mxGeometry relative="1" as="geometry" />
        </mxCell>
        <mxCell id="amig_3oEZwYlV8EGqkei-26" style="edgeStyle=orthogonalEdgeStyle;rounded=0;orthogonalLoop=1;jettySize=auto;html=1;exitX=0.5;exitY=1;exitDx=0;exitDy=0;entryX=0;entryY=0.5;entryDx=0;entryDy=0;" edge="1" parent="1" source="amig_3oEZwYlV8EGqkei-27" target="amig_3oEZwYlV8EGqkei-30">
          <mxGeometry relative="1" as="geometry" />
        </mxCell>
        <mxCell id="amig_3oEZwYlV8EGqkei-27" value="Oggetto celeste" style="rounded=0;whiteSpace=wrap;html=1;" vertex="1" parent="1">
          <mxGeometry x="290" y="480" width="120" height="60" as="geometry" />
        </mxCell>
        <mxCell id="amig_3oEZwYlV8EGqkei-28" value="" style="ellipse;whiteSpace=wrap;html=1;aspect=fixed;" vertex="1" parent="1">
          <mxGeometry x="380" y="560" width="30" height="30" as="geometry" />
        </mxCell>
        <mxCell id="amig_3oEZwYlV8EGqkei-29" value="" style="ellipse;whiteSpace=wrap;html=1;aspect=fixed;fillColor=#33001A;" vertex="1" parent="1">
          <mxGeometry x="380" y="600" width="30" height="30" as="geometry" />
        </mxCell>
        <mxCell id="amig_3oEZwYlV8EGqkei-30" value="" style="ellipse;whiteSpace=wrap;html=1;aspect=fixed;" vertex="1" parent="1">
          <mxGeometry x="380" y="640" width="30" height="30" as="geometry" />
        </mxCell>
        <mxCell id="amig_3oEZwYlV8EGqkei-31" value="Nome" style="text;html=1;align=center;verticalAlign=middle;whiteSpace=wrap;rounded=0;" vertex="1" parent="1">
          <mxGeometry x="410" y="560" width="60" height="30" as="geometry" />
        </mxCell>
        <mxCell id="amig_3oEZwYlV8EGqkei-32" value="Codice" style="text;html=1;align=center;verticalAlign=middle;whiteSpace=wrap;rounded=0;" vertex="1" parent="1">
          <mxGeometry x="410" y="600" width="60" height="30" as="geometry" />
        </mxCell>
        <mxCell id="amig_3oEZwYlV8EGqkei-33" value="Tipo" style="text;html=1;align=center;verticalAlign=middle;whiteSpace=wrap;rounded=0;" vertex="1" parent="1">
          <mxGeometry x="410" y="640" width="50" height="30" as="geometry" />
        </mxCell>
      </root>
    </mxGraphModel>
  </diagram>
</mxfile>
